<svg width="18" height="21" viewBox="0 0 18 21" fill="none" xmlns="http://www.w3.org/2000/svg">
<path d="M16.6112 0H7.88411C7.12217 0.00358563 6.50533 0.609585 6.50166 1.35815V6.80246H1.38883C1.02109 6.80067 0.667959 6.94321 0.40698 7.19781C0.146001 7.45242 0 7.79845 0 8.15972V19.7178C0 20.0943 0.311157 20.4 0.694426 20.4H17.3056C17.6888 20.4 18 20.0943 18 19.7178V1.35817C17.9963 0.606946 17.3759 0 16.6112 0ZM1.38883 8.1597H6.50259L6.50168 19.0419H1.38885L1.38883 8.1597ZM16.6112 19.0419H12.9458V17.0015V17.0024C12.9458 16.625 12.6346 16.3202 12.2514 16.3202C11.8672 16.3202 11.5569 16.625 11.5569 17.0024V19.0428L7.88402 19.0419V1.35815H16.6111L16.6112 19.0419Z" fill="#71B21D"/>
<path d="M10.1973 5.99961C10.3558 5.99961 10.5088 5.93787 10.6215 5.82752C10.7335 5.71717 10.7974 5.56823 10.7974 5.41234V4.24321C10.8131 4.07884 10.7579 3.91446 10.6444 3.79176C10.5301 3.66906 10.3692 3.59961 10.1997 3.59961C10.031 3.59961 9.86936 3.66906 9.75582 3.79176C9.64229 3.91446 9.58631 4.07883 9.60286 4.24321V5.41234C9.60129 5.56745 9.66357 5.71717 9.77475 5.82675C9.88671 5.9371 10.0389 5.99961 10.1973 5.99961Z" fill="#71B21D"/>
<path d="M13.8029 5.99961C13.9613 5.99961 14.1135 5.9371 14.2255 5.82675C14.3367 5.71717 14.3989 5.56746 14.3974 5.41234V4.24321C14.4131 4.07884 14.3579 3.91446 14.2444 3.79176C14.1309 3.66906 13.9692 3.59961 13.7997 3.59961C13.631 3.59961 13.4694 3.66906 13.3558 3.79176C13.2423 3.91446 13.1863 4.07883 13.2029 4.24321V5.41234C13.2029 5.73645 13.4717 5.99961 13.8029 5.99961Z" fill="#71B21D"/>
<path d="M4.19716 9.59961C4.03868 9.59961 3.8865 9.68135 3.77453 9.82745C3.66336 9.97355 3.60107 10.1718 3.60265 10.3771V11.1475C3.58688 11.3651 3.64207 11.5828 3.75561 11.7452C3.86915 11.9066 4.03079 11.9996 4.20029 11.9996C4.36902 11.9996 4.53065 11.9066 4.64419 11.7452C4.75773 11.5828 4.81371 11.3651 4.79715 11.1475V10.3771C4.79715 9.94803 4.52832 9.59961 4.19716 9.59961Z" fill="#71B21D"/>
<path d="M4.19727 13.2C4.03806 13.2 3.88518 13.288 3.77271 13.4434C3.66102 13.5977 3.59845 13.8084 3.60004 14.0268V14.8536C3.63013 15.2773 3.88994 15.6 4.20042 15.6C4.51011 15.6 4.76992 15.2773 4.80001 14.8536V14.0268C4.80001 13.8074 4.73664 13.5977 4.62338 13.4423C4.51011 13.2869 4.35727 13.2 4.19727 13.2Z" fill="#71B21D"/>
<path d="M10.1973 10.8004C10.3558 10.8004 10.5088 10.7387 10.6215 10.6283C10.7335 10.5179 10.7974 10.369 10.7974 10.2131V9.04399C10.8131 8.87962 10.7579 8.71524 10.6444 8.59254C10.5301 8.46984 10.3692 8.40039 10.1997 8.40039C10.031 8.40039 9.86936 8.46984 9.75582 8.59254C9.64229 8.71524 9.58631 8.87961 9.60286 9.04399V10.2131C9.60129 10.3682 9.66357 10.5179 9.77475 10.6275C9.88671 10.7379 10.0389 10.8004 10.1973 10.8004Z" fill="#71B21D"/>
<path d="M13.8029 10.8004C13.9613 10.8004 14.1135 10.7379 14.2255 10.6275C14.3367 10.5179 14.3989 10.3682 14.3974 10.2131V9.04399C14.4131 8.87962 14.3579 8.71524 14.2444 8.59254C14.1309 8.46984 13.9692 8.40039 13.7997 8.40039C13.631 8.40039 13.4694 8.46984 13.3558 8.59254C13.2423 8.71524 13.1863 8.87961 13.2029 9.04399V10.2131C13.2029 10.5372 13.4717 10.8004 13.8029 10.8004Z" fill="#71B21D"/>
</svg>
