<svg width="18" height="21" viewBox="0 0 18 21" fill="none" xmlns="http://www.w3.org/2000/svg">
<path d="M6.50166 1.35815V6.30246V6.80246H6.00166H1.38883C1.02109 6.80067 0.667959 6.94321 0.40698 7.19781C0.146001 7.45242 0 7.79845 0 8.15972V19.7178C0 20.0943 0.311157 20.4 0.694426 20.4H17.3056C17.6888 20.4 18 20.0943 18 19.7178V1.35817M6.50166 1.35815L7.00165 1.3606C7.00165 1.36023 7.00166 1.35986 7.00166 1.35949M6.50166 1.35815C6.50533 0.609585 7.12217 0.00358563 7.88411 0M6.50166 1.35815H7.00166V1.35949M7.00166 1.35949V6.80246V7.30246H6.50166H1.38883H1.38639L1.38639 7.30246C1.1492 7.3013 0.922576 7.39334 0.756136 7.55571L0.756133 7.55571C0.591033 7.71678 0.5 7.934 0.5 8.15972V19.7178C0.5 19.8098 0.578914 19.9 0.694426 19.9H17.3056C17.4211 19.9 17.5 19.8098 17.5 19.7178V1.35956M7.00166 1.35949C7.00455 0.894198 7.39037 0.502881 7.88541 0.5M17.5 1.35956C17.5 1.35991 17.5 1.36026 17.5 1.3606L18 1.35817M17.5 1.35956C17.4972 0.892102 17.1085 0.5 16.6112 0.5H7.88541M17.5 1.35956V1.35817H18M18 1.35817C17.9963 0.606946 17.3759 0 16.6112 0H7.88411M7.88411 0L7.88646 0.499994C7.88611 0.499996 7.88576 0.499998 7.88541 0.5M7.88411 0V0.5H7.88541M1.38883 7.6597H0.888828L0.888829 8.1597L0.888851 19.0419L0.888852 19.5419H1.38885H6.50168H7.00164L7.00168 19.0419L7.00259 8.15974L7.00263 7.6597H6.50259H1.38883ZM16.6112 19.5419H17.1112L17.1112 19.0419L17.1111 1.35815L17.1111 0.858152H16.6111H7.88402H7.38402V1.35815V19.0419V19.5418L7.8839 19.5419L11.5568 19.5428L12.0569 19.5429V19.0428V17.0024C12.0569 16.9095 12.1349 16.8202 12.2514 16.8202C12.3673 16.8202 12.4458 16.9099 12.4458 17.0024V19.0419V19.5419H12.9458H16.6112Z" fill="#64686F" stroke="#CCD1D9"/>
<path d="M10.6215 5.82752C10.7335 5.71717 10.7974 5.56823 10.7974 5.41234V4.24321C10.8131 4.07884 10.7579 3.91446 10.6444 3.79176C10.5301 3.66906 10.3692 3.59961 10.1997 3.59961C10.031 3.59961 9.86936 3.66906 9.75582 3.79176C9.64229 3.91446 9.58631 4.07883 9.60286 4.24321V5.41234C9.60129 5.56745 9.66357 5.71717 9.77475 5.82675C9.88671 5.9371 10.0389 5.99961 10.1973 5.99961C10.3558 5.99961 10.5088 5.93787 10.6215 5.82752ZM10.6215 5.82752L10.2718 5.47019C10.2716 5.47038 10.2714 5.47058 10.2712 5.47078M10.6215 5.82752L10.2706 5.47142C10.2708 5.4712 10.271 5.47099 10.2712 5.47078M10.2712 5.47078C10.2902 5.45176 10.2974 5.43025 10.2974 5.41234V4.24321V4.21928L10.2996 4.19546C10.3018 4.17351 10.2946 4.15024 10.278 4.13197M10.2712 5.47078C10.2531 5.48814 10.2265 5.49961 10.1973 5.49961C10.1699 5.49961 10.1439 5.48859 10.1257 5.47066L9.77508 5.82641L10.1257 5.47065C10.11 5.45513 10.1027 5.4353 10.1028 5.41742L10.1029 5.41742V5.41234V4.24321V4.2181L10.1003 4.19311C10.0984 4.1742 10.1046 4.151 10.1228 4.13135L10.1228 4.13135C10.1396 4.11319 10.1672 4.09961 10.1997 4.09961C10.232 4.09961 10.2595 4.11248 10.278 4.13197M10.278 4.13197C10.2782 4.13219 10.2784 4.1324 10.2786 4.13261L10.6444 3.79177L10.2774 4.13135C10.2776 4.13155 10.2778 4.13176 10.278 4.13197Z" fill="#64686F" stroke="#CCD1D9"/>
<path d="M13.8973 5.41234H13.8974V4.24321V4.21928L13.8996 4.19546C13.9018 4.17326 13.8944 4.14971 13.8774 4.13135L13.8973 5.41234ZM13.8973 5.41234L13.8974 5.41743M13.8973 5.41234L13.8974 5.41743M13.8974 5.41743C13.8976 5.4353 13.8902 5.45512 13.8745 5.47064L13.8974 5.41743ZM13.7228 4.13135L13.7228 4.13135C13.7046 4.151 13.6984 4.17419 13.7003 4.19311L13.7029 4.2181V4.24321V5.41234C13.7029 5.45028 13.7377 5.49961 13.8028 5.49961C13.8303 5.49961 13.8563 5.48858 13.8745 5.47066L13.7228 4.13135ZM13.7228 4.13135C13.7396 4.11319 13.7672 4.09961 13.7997 4.09961C13.8333 4.09961 13.8608 4.11344 13.8774 4.13135L13.7228 4.13135Z" fill="#64686F" stroke="#CCD1D9"/>
<path d="M4.10265 10.3771H4.10267L4.10264 10.3733C4.10181 10.2661 4.13543 10.1793 4.17193 10.1309C4.18256 10.1171 4.19164 10.1088 4.19786 10.1041C4.20441 10.109 4.2138 10.1178 4.22549 10.1329C4.26111 10.1791 4.29715 10.2638 4.29715 10.3771V11.1475V11.1665L4.29859 11.1854C4.30725 11.2992 4.27558 11.3994 4.23479 11.4582C4.22047 11.4784 4.20786 11.4897 4.19992 11.4954C4.19205 11.4897 4.17941 11.4785 4.16502 11.4582C4.1249 11.4004 4.09291 11.3 4.10134 11.1836L4.10265 11.1656V11.1475V10.3771ZM4.18723 10.0981C4.18725 10.098 4.18815 10.0982 4.18986 10.099C4.18806 10.0986 4.1872 10.0982 4.18723 10.0981Z" fill="#64686F" stroke="#CCD1D9"/>
<path d="M4.10005 14.0268H4.10004V14.8334C4.11093 14.9483 4.1501 15.0293 4.18464 15.0723C4.19053 15.0796 4.1957 15.0852 4.2001 15.0896C4.20445 15.0853 4.20956 15.0797 4.21536 15.0724C4.24994 15.0294 4.28911 14.9483 4.30001 14.8334V14.0268C4.30001 13.8976 4.26165 13.7949 4.21935 13.7368L4.10005 14.0268ZM4.10005 14.0268L4.10002 14.0232M4.10005 14.0268L4.10002 14.0232M4.10002 14.0232C4.0991 13.8956 4.13713 13.7926 4.17771 13.7366L4.10002 14.0232ZM4.19833 13.7119C4.19244 13.7179 4.18544 13.7259 4.17772 13.7366L4.19833 13.7119ZM4.19833 13.7119C4.20429 13.7179 4.21143 13.726 4.21934 13.7368L4.19833 13.7119ZM4.18237 15.1031C4.18235 15.103 4.18319 15.1025 4.18494 15.102C4.18326 15.1029 4.18239 15.1032 4.18237 15.1031ZM4.21521 15.1019C4.21696 15.1024 4.21781 15.1029 4.21779 15.103C4.21777 15.1031 4.21689 15.1028 4.21521 15.1019Z" fill="#64686F" stroke="#CCD1D9"/>
<path d="M10.6215 10.6283C10.7335 10.5179 10.7974 10.369 10.7974 10.2131V9.04399C10.8131 8.87962 10.7579 8.71524 10.6444 8.59254C10.5301 8.46984 10.3692 8.40039 10.1997 8.40039C10.031 8.40039 9.86936 8.46984 9.75582 8.59254C9.64229 8.71524 9.58631 8.87961 9.60286 9.04399V10.2131C9.60129 10.3682 9.66357 10.5179 9.77475 10.6275C9.88671 10.7379 10.0389 10.8004 10.1973 10.8004C10.3558 10.8004 10.5088 10.7387 10.6215 10.6283ZM10.6215 10.6283L10.2718 10.271C10.2716 10.2712 10.2714 10.2714 10.2712 10.2716M10.6215 10.6283L10.2706 10.2722C10.2708 10.272 10.271 10.2718 10.2712 10.2716M10.2712 10.2716C10.2902 10.2525 10.2974 10.231 10.2974 10.2131V9.04399V9.02007L10.2996 8.99625C10.3018 8.97429 10.2946 8.95102 10.278 8.93275M10.2712 10.2716C10.2531 10.2889 10.2265 10.3004 10.1973 10.3004C10.1699 10.3004 10.1439 10.2894 10.1257 10.2714L9.77508 10.6272L10.1257 10.2714C10.11 10.2559 10.1027 10.2361 10.1028 10.2182L10.1029 10.2182V10.2131V9.04399V9.01888L10.1003 8.99389C10.0984 8.97498 10.1046 8.95178 10.1228 8.93213L10.1228 8.93213C10.1396 8.91397 10.1672 8.90039 10.1997 8.90039C10.232 8.90039 10.2595 8.91327 10.278 8.93275M10.278 8.93275C10.2782 8.93297 10.2784 8.93318 10.2786 8.9334L10.6444 8.59255L10.2774 8.93213C10.2776 8.93234 10.2778 8.93254 10.278 8.93275Z" fill="#64686F" stroke="#CCD1D9"/>
<path d="M13.8973 10.2131H13.8974V9.04399V9.02007L13.8996 8.99625C13.9018 8.97404 13.8944 8.95049 13.8774 8.93213L13.8973 10.2131ZM13.8973 10.2131L13.8974 10.2182M13.8973 10.2131L13.8974 10.2182M13.8974 10.2182C13.8976 10.2361 13.8902 10.2559 13.8745 10.2714L13.8974 10.2182ZM13.7228 8.93213L13.7228 8.93213C13.7046 8.95178 13.6984 8.97498 13.7003 8.99389L13.7029 9.01888V9.04399V10.2131C13.7029 10.2511 13.7377 10.3004 13.8028 10.3004C13.8303 10.3004 13.8563 10.2894 13.8745 10.2714L13.7228 8.93213ZM13.7228 8.93213C13.7396 8.91397 13.7672 8.90039 13.7997 8.90039C13.8333 8.90039 13.8608 8.91422 13.8774 8.93213L13.7228 8.93213Z" fill="#64686F" stroke="#CCD1D9"/>
</svg>
