<svg width="18" height="21" viewBox="0 0 18 21" fill="none" xmlns="http://www.w3.org/2000/svg">
<path d="M16.6112 0H7.88411C7.12217 0.00358563 6.50533 0.609585 6.50166 1.35815V6.80246H1.38883C1.02109 6.80067 0.667959 6.94321 0.40698 7.19781C0.146001 7.45242 0 7.79845 0 8.15972V19.7178C0 20.0943 0.311157 20.4 0.694426 20.4H17.3056C17.6888 20.4 18 20.0943 18 19.7178V1.35817C17.9963 0.606946 17.3759 0 16.6112 0ZM1.38883 8.1597H6.50259L6.50168 19.0419H1.38885L1.38883 8.1597ZM16.6112 19.0419H12.9458V17.0015V17.0024C12.9458 16.625 12.6346 16.3202 12.2514 16.3202C11.8672 16.3202 11.5569 16.625 11.5569 17.0024V19.0428L7.88402 19.0419V1.35815H16.6111L16.6112 19.0419Z" fill="#64686F"/>
<path d="M10.1974 5.99961C10.3559 5.99961 10.5089 5.93787 10.6216 5.82752C10.7336 5.71717 10.7975 5.56823 10.7975 5.41234V4.24321C10.8132 4.07884 10.758 3.91446 10.6445 3.79176C10.5302 3.66906 10.3693 3.59961 10.1998 3.59961C10.0311 3.59961 9.86945 3.66906 9.75591 3.79176C9.64238 3.91446 9.5864 4.07883 9.60295 4.24321V5.41234C9.60138 5.56745 9.66367 5.71717 9.77484 5.82675C9.8868 5.9371 10.0389 5.99961 10.1974 5.99961Z" fill="#64686F"/>
<path d="M13.8028 5.99961C13.9613 5.99961 14.1135 5.9371 14.2254 5.82675C14.3366 5.71717 14.3989 5.56746 14.3973 5.41234V4.24321C14.4131 4.07884 14.3579 3.91446 14.2443 3.79176C14.1308 3.66906 13.9692 3.59961 13.7997 3.59961C13.6309 3.59961 13.4693 3.66906 13.3558 3.79176C13.2422 3.91446 13.1863 4.07883 13.2028 4.24321V5.41234C13.2028 5.73645 13.4716 5.99961 13.8028 5.99961Z" fill="#64686F"/>
<path d="M4.19725 9.59961C4.03877 9.59961 3.88659 9.68135 3.77463 9.82745C3.66345 9.97355 3.60117 10.1718 3.60274 10.3771V11.1475C3.58697 11.3651 3.64217 11.5828 3.7557 11.7452C3.86924 11.9066 4.03088 11.9996 4.20039 11.9996C4.36912 11.9996 4.53074 11.9066 4.64428 11.7452C4.75782 11.5828 4.8138 11.3651 4.79724 11.1475V10.3771C4.79724 9.94803 4.52841 9.59961 4.19725 9.59961Z" fill="#64686F"/>
<path d="M4.19736 13.2C4.03815 13.2 3.88527 13.288 3.7728 13.4434C3.66112 13.5977 3.59854 13.8084 3.60013 14.0268V14.8536C3.63023 15.2773 3.89003 15.6 4.20051 15.6C4.5102 15.6 4.77001 15.2773 4.8001 14.8536V14.0268C4.8001 13.8074 4.73673 13.5977 4.62347 13.4423C4.5102 13.2869 4.35736 13.2 4.19736 13.2Z" fill="#64686F"/>
<path d="M10.1974 10.8004C10.3559 10.8004 10.5089 10.7387 10.6216 10.6283C10.7336 10.5179 10.7975 10.369 10.7975 10.2131V9.04399C10.8132 8.87962 10.758 8.71524 10.6445 8.59254C10.5302 8.46984 10.3693 8.40039 10.1998 8.40039C10.0311 8.40039 9.86945 8.46984 9.75591 8.59254C9.64238 8.71524 9.5864 8.87961 9.60295 9.04399V10.2131C9.60138 10.3682 9.66367 10.5179 9.77484 10.6275C9.8868 10.7379 10.0389 10.8004 10.1974 10.8004Z" fill="#64686F"/>
<path d="M13.8028 10.8004C13.9613 10.8004 14.1135 10.7379 14.2254 10.6275C14.3366 10.5179 14.3989 10.3682 14.3973 10.2131V9.04399C14.4131 8.87962 14.3579 8.71524 14.2443 8.59254C14.1308 8.46984 13.9692 8.40039 13.7997 8.40039C13.6309 8.40039 13.4693 8.46984 13.3558 8.59254C13.2422 8.71524 13.1863 8.87961 13.2028 9.04399V10.2131C13.2028 10.5372 13.4716 10.8004 13.8028 10.8004Z" fill="#64686F"/>
</svg>
