<svg width="16" height="12" viewBox="0 0 16 12" fill="none" xmlns="http://www.w3.org/2000/svg">
<path d="M15.8219 7.59849C15.6702 9.87104 12.006 11.5901 7.63917 11.4411C3.27237 11.292 -0.144429 9.32818 0.00991246 7.0583L0.129655 5.27539L15.8725 5.81559C15.8725 5.81559 15.8459 7.23127 15.8219 7.60116V7.59849Z" fill="url(#paint0_linear_80_14434)"/>
<mask id="mask0_80_14434" style="mask-type:luminance" maskUnits="userSpaceOnUse" x="0" y="7" width="16" height="5">
<path d="M15.8219 7.59812C15.6702 9.87066 12.006 11.5897 7.63917 11.4407C3.27237 11.2917 -0.144429 9.32781 0.00991246 7.05792" fill="white"/>
</mask>
<g mask="url(#mask0_80_14434)">
<path d="M11.3272 11.9954L9.5789 11.9288L9.46448 8.69299L11.2128 8.75686L11.3272 11.9954Z" fill="#F5F7FA"/>
</g>
<path d="M15.9094 5.15667C15.9594 2.88218 12.4588 0.960457 8.09058 0.864379C3.72232 0.7683 0.140608 2.53425 0.0905812 4.80874C0.0405545 7.08323 3.54116 9.00495 7.90941 9.10103C12.2777 9.19711 15.8594 7.43116 15.9094 5.15667Z" fill="#FFD522"/>
<path d="M2.83592 5.20161C2.93438 3.72206 5.57681 2.60973 8.73815 2.71884C10.4785 2.77738 12.0113 3.19517 13.0198 3.80455C12.1523 2.8785 10.2363 2.1946 7.97176 2.11743C4.81308 2.00833 2.17065 3.12066 2.06953 4.60021C2.02429 5.26547 2.50329 5.89082 3.32822 6.38844C2.98494 6.02388 2.80664 5.61939 2.83325 5.19895L2.83592 5.20161Z" fill="#EAA700"/>
<path d="M13.5671 4.93634C13.6041 3.45538 11.071 2.19085 7.90923 2.11192C4.7475 2.03299 2.15445 3.16956 2.11748 4.65052C2.08051 6.13148 4.61362 7.39601 7.77535 7.47494C10.9371 7.55387 13.5301 6.4173 13.5671 4.93634Z" stroke="#EAA700" stroke-width="1.28" stroke-miterlimit="10"/>
<path d="M13.6211 0.55011L14.0469 1.32714C14.2012 1.60921 14.4328 1.84339 14.7175 1.99773L15.4945 2.4235L14.7175 2.84926C14.4354 3.0036 14.2012 3.23512 14.0469 3.51985L13.6211 4.29688L13.1954 3.51985C13.041 3.23778 12.8095 3.0036 12.5248 2.84926L11.7477 2.4235L12.5248 1.99773C12.8068 1.84339 13.041 1.61187 13.1954 1.32714L13.6211 0.55011Z" fill="#F5F7FA"/>
<defs>
<linearGradient id="paint0_linear_80_14434" x1="0.959197" y1="10.0939" x2="15.3568" y2="4.50367" gradientUnits="userSpaceOnUse">
<stop stop-color="#F5BE00"/>
<stop offset="1" stop-color="#EAA700"/>
</linearGradient>
</defs>
</svg>
