<svg width="26" height="17" viewBox="0 0 26 17" fill="none" xmlns="http://www.w3.org/2000/svg">
<path d="M1.50588 7.36891L3.12717 8.50503L2.68861 9.11973C2.16595 9.85302 2.33646 10.8755 3.06977 11.3993L3.13158 11.4433C3.41137 11.6431 3.73921 11.7475 4.07613 11.7475C4.16666 11.7475 4.25777 11.74 4.34859 11.7248C4.35456 11.7238 4.35993 11.7212 4.36586 11.7201C4.32221 11.9205 4.31488 12.1291 4.34976 12.3374C4.42154 12.768 4.65651 13.1447 5.01217 13.3987L5.07399 13.4426C5.36081 13.6474 5.69187 13.7459 6.01971 13.7458C6.20445 13.7458 6.38796 13.7136 6.5624 13.6526C6.56011 14.1656 6.79517 14.6724 7.24345 14.9926L7.30527 15.0366C7.59209 15.2414 7.92315 15.3399 8.25128 15.3398C8.54905 15.3398 8.84341 15.2563 9.10108 15.0999C9.16598 15.52 9.3914 15.9149 9.76361 16.1809L9.82513 16.2249C10.1052 16.4249 10.4333 16.5294 10.7706 16.5294C10.8608 16.5294 10.9519 16.5219 11.043 16.5067C11.4731 16.4349 11.8496 16.1994 12.1027 15.8442L12.6019 15.1444L13.748 15.9476C14.0319 16.1466 14.363 16.2504 14.7028 16.2504C14.8001 16.2504 14.8985 16.2418 14.9964 16.2245C15.4358 16.1469 15.8188 15.9027 16.0748 15.5369C16.3071 15.2052 16.402 14.8091 16.3612 14.41C16.6013 14.5374 16.8653 14.606 17.136 14.606C17.2332 14.606 17.3317 14.5974 17.4295 14.5801C17.869 14.5025 18.2519 14.2583 18.508 13.8925C18.7568 13.5367 18.8422 13.1172 18.7897 12.717C18.984 12.7922 19.1865 12.8337 19.3889 12.8337C19.9163 12.8335 20.4354 12.5852 20.76 12.1212C20.9969 11.7825 21.0832 11.3864 21.0464 11.0039C21.3157 11.1686 21.6147 11.2527 21.9126 11.2527C22.4399 11.2527 22.9591 11.0043 23.2837 10.5403C23.7352 9.8948 23.6626 9.04015 23.1619 8.47452L24.5526 7.36861C25.0424 6.97895 25.145 6.2722 24.7861 5.7594L22.0717 1.87982C21.6973 1.34458 20.9569 1.21367 20.4208 1.58852C19.5761 2.18034 18.5047 2.29513 17.5543 1.89667L16.1419 1.30442C15.113 0.872574 13.9783 0.906823 12.989 1.36496C11.9914 0.903341 10.8458 0.877924 9.82894 1.30442L8.41652 1.89667C7.46611 2.29557 6.39471 2.18034 5.55007 1.58867C5.29108 1.40689 4.97585 1.33711 4.66442 1.39208C4.3524 1.44706 4.08081 1.62034 3.89917 1.87982L1.21466 5.71659C1.03302 5.97622 0.963292 6.29111 1.01837 6.60322C1.07316 6.91518 1.2463 7.18712 1.50588 7.36891ZM3.47963 10.9543C3.47934 10.9541 3.47934 10.9541 3.47905 10.954L3.41782 10.9103C2.95433 10.5791 2.84652 9.93233 3.17699 9.46849L3.85728 8.51472C4.05884 8.23237 4.37672 8.08196 4.69957 8.08196C4.90729 8.08196 5.11677 8.14427 5.29812 8.27386L5.35993 8.31799C5.82342 8.64901 5.93152 9.2958 5.60076 9.75978L5.26061 10.2367L4.92033 10.7137C4.5892 11.177 3.94306 11.2858 3.47963 10.9543ZM5.42204 12.9536C5.42175 12.9534 5.42175 12.9534 5.42146 12.9533L5.36023 12.9096C5.13552 12.7492 4.98698 12.5109 4.94157 12.2385C4.89586 11.9662 4.95915 11.6925 5.1194 11.4678L5.74885 10.5855L6.08914 10.1085C6.08912 10.1086 6.08916 10.1085 6.08914 10.1085L6.37831 9.7032C6.53827 9.47846 6.77646 9.32966 7.04863 9.28422C7.10605 9.27454 7.16377 9.26985 7.2209 9.26985C7.43418 9.26985 7.6416 9.33582 7.81827 9.46219L7.88038 9.50661C8.10509 9.66699 8.25362 9.90536 8.29903 10.1776C8.34474 10.45 8.28146 10.7237 8.12091 10.9484L6.86288 12.7129C6.70233 12.9376 6.46444 13.0864 6.19227 13.1318C5.91922 13.1779 5.64646 13.114 5.42204 12.9536ZM8.42355 14.7258C8.1502 14.7718 7.87774 14.7079 7.65332 14.5475C7.65303 14.5474 7.65303 14.5474 7.65274 14.5473L7.59151 14.5036C7.12802 14.1724 7.02021 13.5256 7.35127 13.0618L8.60929 11.2973C8.76984 11.0724 9.00803 10.9236 9.27991 10.8782C9.33762 10.8685 9.39505 10.8638 9.45217 10.8638C9.66546 10.8638 9.87318 10.9299 10.0501 11.0564L10.1119 11.1006C10.5754 11.4316 10.6832 12.0784 10.3528 12.5424L10.0638 12.9476C10.0638 12.9475 10.0637 12.9476 10.0638 12.9476L9.38333 13.9013C9.3832 13.9015 9.38314 13.9017 9.38301 13.9019L9.09416 14.3068C8.93361 14.5316 8.69572 14.6804 8.42355 14.7258ZM11.6143 15.4955C11.4543 15.7202 11.2162 15.869 10.944 15.9144C10.6721 15.9605 10.3985 15.8965 10.1738 15.7362L10.1122 15.6922C9.64903 15.3612 9.54087 14.7149 9.87092 14.2511L10.4696 13.4119L10.552 13.2965C10.712 13.0719 10.9501 12.9231 11.2223 12.8776C11.4939 12.8316 11.7681 12.8952 11.9922 13.0555L12.0541 13.0999C12.2788 13.2603 12.4273 13.4986 12.4727 13.7709C12.5181 14.0413 12.4555 14.3129 12.2977 14.5367C12.2927 14.5429 12.2855 14.5462 12.2808 14.5528C12.276 14.5597 12.2754 14.5678 12.2712 14.5748L11.6143 15.4955ZM15.9099 1.85827L17.3223 2.45052C18.464 2.92902 19.7507 2.79063 20.7647 2.08051C21.029 1.89506 21.3949 1.95957 21.5801 2.22432L24.2945 6.10391C24.4717 6.35708 24.421 6.70613 24.1793 6.89862L22.6901 8.0827L17.133 4.1754C16.6121 3.81506 16.0028 3.63489 15.3937 3.63489C14.7787 3.63489 14.1641 3.81829 13.6402 4.18493L11.0571 5.99308C10.8227 6.15727 10.5385 6.2206 10.257 6.17046C9.97542 6.12077 9.72991 5.96435 9.56585 5.72979C9.22717 5.24587 9.34524 4.57635 9.82923 4.23697L12.7209 2.20101C13.6607 1.54279 14.8534 1.41481 15.9099 1.85827ZM1.70627 6.0611L4.39078 2.22432C4.48043 2.09605 4.61461 2.01058 4.76871 1.98346C4.92165 1.9559 5.0778 1.99064 5.20612 2.08051C6.2201 2.79093 7.50713 2.92961 8.64855 2.45052L10.061 1.85827C10.7821 1.55576 11.5805 1.52404 12.318 1.75055L9.48469 3.74543C8.73 4.27436 8.54601 5.31902 9.07424 6.07429C9.3303 6.44006 9.71321 6.68429 10.1527 6.76184C10.593 6.83983 11.0357 6.74147 11.401 6.48492L13.9842 4.67692C14.8224 4.09038 15.9506 4.08715 16.79 4.66812L22.5287 8.7031C22.5288 8.70316 22.5289 8.70319 22.529 8.70325C23.0127 9.04233 23.1308 9.71185 22.7921 10.1958C22.628 10.4303 22.3825 10.5867 22.101 10.6364C21.8191 10.6863 21.5352 10.6234 21.3006 10.4589L20.3507 9.79326C20.3503 9.79299 20.35 9.7926 20.3496 9.79233L17.5048 7.79903C17.3695 7.70403 17.1823 7.73702 17.087 7.87277C16.9921 8.00866 17.0249 8.19587 17.1609 8.29101L17.5683 8.57653C17.5683 8.57651 17.5684 8.57655 17.5683 8.57653L20.0061 10.2848C20.4891 10.6241 20.6069 11.293 20.2684 11.7767C19.93 12.261 19.2609 12.3791 18.7769 12.0398L18.0979 11.564C18.0978 11.5639 18.0977 11.5638 18.0975 11.5637L15.9321 10.0464C15.7971 9.95153 15.6093 9.98437 15.5144 10.1201C15.4194 10.256 15.4523 10.4432 15.5882 10.5384L17.754 12.056C18.237 12.395 18.3549 13.0643 18.0164 13.548C17.8523 13.7826 17.6071 13.9392 17.3252 13.9889C17.0443 14.0388 16.7598 13.9755 16.5251 13.8112L15.2641 12.9276L14.7676 12.5796C14.7676 12.5796 14.7675 12.5796 14.7676 12.5796L14.3598 12.2939C14.2244 12.1989 14.0372 12.2319 13.942 12.3676C13.8471 12.5035 13.8799 12.6907 14.0158 12.7859L14.9201 13.4195L15.3204 13.7001C15.5548 13.8643 15.711 14.11 15.7608 14.3919C15.8106 14.6736 15.7476 14.958 15.5832 15.1924C15.4191 15.427 15.1739 15.5836 14.8921 15.6333C14.6111 15.6831 14.3264 15.6201 14.092 15.4556L12.9275 14.6395C13.07 14.3401 13.1204 14.006 13.0645 13.6719C12.9927 13.2415 12.7578 12.8647 12.403 12.6114L12.3412 12.567C11.9858 12.3132 11.5525 12.2131 11.1236 12.2854C11.1176 12.2864 11.1123 12.289 11.1064 12.29C11.2403 11.6709 11.0075 11.0023 10.4606 10.6118L10.3988 10.5677C10.0434 10.3139 9.60979 10.2134 9.18118 10.2859C9.08755 10.3016 8.99785 10.3282 8.91003 10.3589C8.91045 10.2659 8.90651 10.1723 8.89084 10.0786C8.81906 9.64808 8.5841 9.27146 8.2296 9.01814L8.16749 8.97372C7.81211 8.72011 7.37881 8.61954 6.9499 8.69196C6.7413 8.72678 6.54627 8.8016 6.37091 8.90828C6.30565 8.48881 6.08026 8.0947 5.70857 7.82923L5.64675 7.7851C4.96495 7.29777 4.03842 7.41857 3.49097 8.02697L1.84983 6.87692C1.7218 6.7872 1.63625 6.65292 1.6093 6.49884C1.58205 6.34477 1.61633 6.18923 1.70627 6.0611Z" fill="#64686F"/>
<path d="M6.08914 10.1085L5.74885 10.5855L5.1194 11.4678C4.95915 11.6925 4.89586 11.9662 4.94157 12.2385C4.98698 12.5109 5.13552 12.7492 5.36023 12.9096L5.42146 12.9533C5.42175 12.9534 5.42175 12.9534 5.42204 12.9536C5.64646 13.114 5.91922 13.1779 6.19227 13.1318C6.46444 13.0864 6.70233 12.9376 6.86288 12.7129L8.12091 10.9484C8.28146 10.7237 8.34474 10.45 8.29903 10.1776C8.25362 9.90536 8.10509 9.66699 7.88038 9.50661L7.81827 9.46219C7.6416 9.33582 7.43418 9.26985 7.2209 9.26985C7.16377 9.26985 7.10605 9.27454 7.04863 9.28422C6.77646 9.32966 6.53827 9.47846 6.37831 9.7032L6.08914 10.1085ZM6.08914 10.1085C6.08916 10.1085 6.08912 10.1086 6.08914 10.1085ZM10.0638 12.9476L10.3528 12.5424C10.6832 12.0784 10.5754 11.4316 10.1119 11.1006L10.0501 11.0564C9.87318 10.9299 9.66546 10.8638 9.45217 10.8638C9.39505 10.8638 9.33762 10.8685 9.27991 10.8782C9.00803 10.9236 8.76984 11.0724 8.60929 11.2973L7.35127 13.0618C7.02021 13.5256 7.12802 14.1724 7.59151 14.5036L7.65274 14.5473C7.65303 14.5474 7.65303 14.5474 7.65332 14.5475C7.87774 14.7079 8.1502 14.7718 8.42355 14.7258C8.69572 14.6804 8.93361 14.5316 9.09416 14.3068L9.38301 13.9019C9.38314 13.9017 9.3832 13.9015 9.38333 13.9013L10.0638 12.9476ZM10.0638 12.9476C10.0637 12.9476 10.0638 12.9475 10.0638 12.9476ZM17.5683 8.57653L17.1609 8.29101C17.0249 8.19587 16.9921 8.00866 17.087 7.87277C17.1823 7.73702 17.3695 7.70403 17.5048 7.79903L20.3496 9.79233C20.35 9.7926 20.3503 9.79299 20.3507 9.79326L21.3006 10.4589C21.5352 10.6234 21.8191 10.6863 22.101 10.6364C22.3825 10.5867 22.628 10.4303 22.7921 10.1958C23.1308 9.71185 23.0127 9.04233 22.529 8.70325C22.5289 8.70319 22.5288 8.70316 22.5287 8.7031L16.79 4.66812C15.9506 4.08715 14.8224 4.09038 13.9842 4.67692L11.401 6.48492C11.0357 6.74147 10.593 6.83983 10.1527 6.76184C9.71321 6.68429 9.3303 6.44006 9.07424 6.07429C8.54601 5.31902 8.73 4.27436 9.48469 3.74543L12.318 1.75055C11.5805 1.52404 10.7821 1.55576 10.061 1.85827L8.64855 2.45052C7.50713 2.92961 6.2201 2.79093 5.20612 2.08051C5.0778 1.99064 4.92165 1.9559 4.76871 1.98346C4.61461 2.01058 4.48043 2.09605 4.39078 2.22432L1.70627 6.0611C1.61633 6.18923 1.58205 6.34477 1.6093 6.49884C1.63625 6.65292 1.7218 6.7872 1.84983 6.87692L3.49097 8.02697C4.03842 7.41857 4.96495 7.29777 5.64675 7.7851L5.70857 7.82923C6.08026 8.0947 6.30565 8.48881 6.37091 8.90828C6.54627 8.8016 6.7413 8.72678 6.9499 8.69196C7.37881 8.61954 7.81211 8.72011 8.16749 8.97372L8.2296 9.01814C8.5841 9.27146 8.81906 9.64808 8.89084 10.0786C8.90651 10.1723 8.91045 10.2659 8.91003 10.3589C8.99785 10.3282 9.08755 10.3016 9.18118 10.2859C9.60979 10.2134 10.0434 10.3139 10.3988 10.5677L10.4606 10.6118C11.0075 11.0023 11.2403 11.6709 11.1064 12.29C11.1123 12.289 11.1176 12.2864 11.1236 12.2854C11.5525 12.2131 11.9858 12.3132 12.3412 12.567L12.403 12.6114C12.7578 12.8647 12.9927 13.2415 13.0645 13.6719C13.1204 14.006 13.07 14.3401 12.9275 14.6395L14.092 15.4556C14.3264 15.6201 14.6111 15.6831 14.8921 15.6333C15.1739 15.5836 15.4191 15.427 15.5832 15.1924C15.7476 14.958 15.8106 14.6736 15.7608 14.3919C15.711 14.11 15.5548 13.8643 15.3204 13.7001L14.9201 13.4195L14.0158 12.7859C13.8799 12.6907 13.8471 12.5035 13.942 12.3676C14.0372 12.2319 14.2244 12.1989 14.3598 12.2939L14.7676 12.5796M17.5683 8.57653C17.5684 8.57655 17.5683 8.57651 17.5683 8.57653ZM17.5683 8.57653L20.0061 10.2848C20.4891 10.6241 20.6069 11.293 20.2684 11.7767C19.93 12.261 19.2609 12.3791 18.7769 12.0398L18.0979 11.564C18.0978 11.5639 18.0977 11.5638 18.0975 11.5637L15.9321 10.0464C15.7971 9.95153 15.6093 9.98437 15.5144 10.1201C15.4194 10.256 15.4523 10.4432 15.5882 10.5384L17.754 12.056C18.237 12.395 18.3549 13.0643 18.0164 13.548C17.8523 13.7826 17.6071 13.9392 17.3252 13.9889C17.0443 14.0388 16.7598 13.9755 16.5251 13.8112L15.2641 12.9276L14.7676 12.5796M14.7676 12.5796C14.7675 12.5796 14.7676 12.5796 14.7676 12.5796ZM1.50588 7.36891L3.12717 8.50503L2.68861 9.11973C2.16595 9.85302 2.33646 10.8755 3.06977 11.3993L3.13158 11.4433C3.41137 11.6431 3.73921 11.7475 4.07613 11.7475C4.16666 11.7475 4.25777 11.74 4.34859 11.7248C4.35456 11.7238 4.35993 11.7212 4.36586 11.7201C4.32221 11.9205 4.31488 12.1291 4.34976 12.3374C4.42154 12.768 4.65651 13.1447 5.01217 13.3987L5.07399 13.4426C5.36081 13.6474 5.69187 13.7459 6.01971 13.7458C6.20445 13.7458 6.38796 13.7136 6.5624 13.6526C6.56011 14.1656 6.79517 14.6724 7.24345 14.9926L7.30527 15.0366C7.59209 15.2414 7.92315 15.3399 8.25128 15.3398C8.54905 15.3398 8.84341 15.2563 9.10108 15.0999C9.16598 15.52 9.3914 15.9149 9.76361 16.1809L9.82513 16.2249C10.1052 16.4249 10.4333 16.5294 10.7706 16.5294C10.8608 16.5294 10.9519 16.5219 11.043 16.5067C11.4731 16.4349 11.8496 16.1994 12.1027 15.8442L12.6019 15.1444L13.748 15.9476C14.0319 16.1466 14.363 16.2504 14.7028 16.2504C14.8001 16.2504 14.8985 16.2418 14.9964 16.2245C15.4358 16.1469 15.8188 15.9027 16.0748 15.5369C16.3071 15.2052 16.402 14.8091 16.3612 14.41C16.6013 14.5374 16.8653 14.606 17.136 14.606C17.2332 14.606 17.3317 14.5974 17.4295 14.5801C17.869 14.5025 18.2519 14.2583 18.508 13.8925C18.7568 13.5367 18.8422 13.1172 18.7897 12.717C18.984 12.7922 19.1865 12.8337 19.3889 12.8337C19.9163 12.8335 20.4354 12.5852 20.76 12.1212C20.9969 11.7825 21.0832 11.3864 21.0464 11.0039C21.3157 11.1686 21.6147 11.2527 21.9126 11.2527C22.4399 11.2527 22.9591 11.0043 23.2837 10.5403C23.7352 9.8948 23.6626 9.04015 23.1619 8.47452L24.5526 7.36861C25.0424 6.97895 25.145 6.2722 24.7861 5.7594L22.0717 1.87982C21.6973 1.34458 20.9569 1.21367 20.4208 1.58852C19.5761 2.18034 18.5047 2.29513 17.5543 1.89667L16.1419 1.30442C15.113 0.872574 13.9783 0.906823 12.989 1.36496C11.9914 0.903341 10.8458 0.877924 9.82894 1.30442L8.41652 1.89667C7.46611 2.29557 6.39471 2.18034 5.55007 1.58867C5.29108 1.40689 4.97585 1.33711 4.66442 1.39208C4.3524 1.44706 4.08081 1.62034 3.89917 1.87982L1.21466 5.71659C1.03302 5.97622 0.963292 6.29111 1.01837 6.60322C1.07316 6.91518 1.2463 7.18712 1.50588 7.36891ZM3.47963 10.9543C3.47934 10.9541 3.47934 10.9541 3.47905 10.954L3.41782 10.9103C2.95433 10.5791 2.84652 9.93233 3.17699 9.46849L3.85728 8.51472C4.05884 8.23237 4.37672 8.08196 4.69957 8.08196C4.90729 8.08196 5.11677 8.14427 5.29812 8.27386L5.35993 8.31799C5.82342 8.64901 5.93152 9.2958 5.60076 9.75978L5.26061 10.2367L4.92033 10.7137C4.5892 11.177 3.94306 11.2858 3.47963 10.9543ZM11.6143 15.4955C11.4543 15.7202 11.2162 15.869 10.944 15.9144C10.6721 15.9605 10.3985 15.8965 10.1738 15.7362L10.1122 15.6922C9.64903 15.3612 9.54087 14.7149 9.87092 14.2511L10.4696 13.4119L10.552 13.2965C10.712 13.0719 10.9501 12.9231 11.2223 12.8776C11.4939 12.8316 11.7681 12.8952 11.9922 13.0555L12.0541 13.0999C12.2788 13.2603 12.4273 13.4986 12.4727 13.7709C12.5181 14.0413 12.4555 14.3129 12.2977 14.5367C12.2927 14.5429 12.2855 14.5462 12.2808 14.5528C12.276 14.5597 12.2754 14.5678 12.2712 14.5748L11.6143 15.4955ZM15.9099 1.85827L17.3223 2.45052C18.464 2.92902 19.7507 2.79063 20.7647 2.08051C21.029 1.89506 21.3949 1.95957 21.5801 2.22432L24.2945 6.10391C24.4717 6.35708 24.421 6.70613 24.1793 6.89862L22.6901 8.0827L17.133 4.1754C16.6121 3.81506 16.0028 3.63489 15.3937 3.63489C14.7787 3.63489 14.1641 3.81829 13.6402 4.18493L11.0571 5.99308C10.8227 6.15727 10.5385 6.2206 10.257 6.17046C9.97542 6.12077 9.72991 5.96435 9.56585 5.72979C9.22717 5.24587 9.34524 4.57635 9.82923 4.23697L12.7209 2.20101C13.6607 1.54279 14.8534 1.41481 15.9099 1.85827Z" stroke="#71B21D" stroke-width="0.5"/>
</svg>
