<svg width="25" height="24" viewBox="0 0 25 24" fill="none" xmlns="http://www.w3.org/2000/svg">
<rect y="0.64093" width="15.5252" height="18.1128" rx="4" transform="rotate(-2.36606 0 0.64093)" fill="#6DAB1D"/>
<path d="M8.289 6.61873C8.13155 6.32183 7.70034 6.33968 7.56796 6.64857L7.23223 7.43198C6.98748 7.99519 6.60896 8.46951 6.13736 8.79031L5.36865 9.31413C5.12386 9.48094 5.139 9.8467 5.39674 9.99271L6.2061 10.4512C6.70279 10.7364 7.12295 11.1732 7.40947 11.7144L7.80879 12.4674C7.96624 12.7643 8.39745 12.7465 8.52983 12.4376L8.86556 11.6542C9.11031 11.0909 9.48884 10.6166 9.96044 10.2958L10.7291 9.77201C10.9739 9.6052 10.9588 9.23944 10.7011 9.09343L9.8917 8.63492C9.39502 8.34971 8.97484 7.91294 8.68832 7.37171L8.289 6.61873Z" fill="#0D0D0D"/>
<path fill-rule="evenodd" clip-rule="evenodd" d="M8.37646 19.9579C9.16307 20.4166 10.1562 20.9095 11.389 21.5214C14.5607 23.0955 16.1465 23.8826 17.6357 23.4575C17.7552 23.4233 17.8731 23.3836 17.989 23.3385C19.4321 22.7766 20.2192 21.1908 21.7933 18.0191L22.9436 15.7013C24.5178 12.5296 25.3049 10.9437 24.8797 9.45458C24.8456 9.33504 24.8059 9.21715 24.7608 9.10131C24.1989 7.65819 22.613 6.87111 19.4413 5.29696C18.544 4.85159 17.7736 4.46922 17.0964 4.15948C17.1145 4.51239 17.131 4.88763 17.1479 5.28704C17.6867 5.54288 18.2956 5.84469 18.9968 6.1927C20.6063 6.99155 21.7279 7.55032 22.5261 8.08099C23.3028 8.59749 23.6527 9.01154 23.829 9.46415C23.8628 9.55104 23.8926 9.63945 23.9182 9.7291C24.0515 10.1962 24.0232 10.7375 23.7169 11.6186C23.4021 12.5239 22.8467 13.6472 22.0479 15.2567L20.8976 17.5745C20.0987 19.1841 19.54 20.3057 19.0093 21.1038C18.4928 21.8806 18.0787 22.2304 17.6261 22.4067C17.5392 22.4405 17.4508 22.4703 17.3612 22.4959C16.8941 22.6292 16.3528 22.6009 15.4717 22.2946C14.5664 21.9799 13.4431 21.4245 11.8335 20.6256C11.2825 20.3522 10.7887 20.1068 10.3455 19.8811C10.2265 19.8861 10.1055 19.8911 9.98238 19.8961C9.40107 19.9202 8.86752 19.9422 8.37646 19.9579Z" fill="#64686F"/>
</svg>
