<svg width="25" height="24" viewBox="0 0 25 24" fill="none" xmlns="http://www.w3.org/2000/svg">
<rect y="0.640625" width="15.5252" height="18.1128" rx="4" transform="rotate(-2.36606 0 0.640625)" fill="#CCD1D9"/>
<path d="M8.28888 6.61843C8.13143 6.32152 7.70021 6.33937 7.56784 6.64827L7.23211 7.43167C6.98735 7.99489 6.60884 8.46921 6.13724 8.79L5.36853 9.31382C5.12374 9.48063 5.13887 9.84639 5.39662 9.99241L6.20598 10.4509C6.70266 10.7361 7.12283 11.1729 7.40935 11.7141L7.80867 12.4671C7.96612 12.764 8.39733 12.7462 8.52971 12.4373L8.86544 11.6539C9.11019 11.0906 9.48872 10.6163 9.96032 10.2955L10.729 9.77171C10.9738 9.6049 10.9587 9.23914 10.7009 9.09313L9.89158 8.63462C9.39489 8.3494 8.97472 7.91263 8.6882 7.37141L8.28888 6.61843Z" fill="white"/>
<path fill-rule="evenodd" clip-rule="evenodd" d="M8.37646 19.9576C9.16307 20.4163 10.1562 20.9092 11.389 21.5211C14.5607 23.0952 16.1465 23.8823 17.6357 23.4571C17.7552 23.423 17.8731 23.3833 17.989 23.3382C19.4321 22.7763 20.2192 21.1905 21.7933 18.0188L22.9436 15.701C24.5178 12.5293 25.3049 10.9434 24.8797 9.45427C24.8456 9.33473 24.8059 9.21685 24.7608 9.101C24.1989 7.65788 22.613 6.87081 19.4413 5.29665C18.544 4.85128 17.7736 4.46891 17.0964 4.15918C17.1145 4.51209 17.131 4.88733 17.1479 5.28674C17.6867 5.54257 18.2956 5.84438 18.9968 6.1924C20.6063 6.99124 21.7279 7.55002 22.5261 8.08069C23.3028 8.59718 23.6527 9.01123 23.829 9.46385C23.8628 9.55073 23.8926 9.63914 23.9182 9.7288C24.0515 10.1959 24.0232 10.7372 23.7169 11.6183C23.4021 12.5236 22.8467 13.6469 22.0479 15.2564L20.8976 17.5742C20.0987 19.1837 19.54 20.3054 19.0093 21.1035C18.4928 21.8803 18.0787 22.2301 17.6261 22.4064C17.5392 22.4402 17.4508 22.47 17.3612 22.4956C16.8941 22.6289 16.3528 22.6006 15.4717 22.2943C14.5664 21.9796 13.4431 21.4242 11.8335 20.6253C11.2825 20.3518 10.7887 20.1065 10.3455 19.8808C10.2265 19.8858 10.1055 19.8908 9.98238 19.8958C9.40107 19.9199 8.86752 19.9419 8.37646 19.9576Z" fill="#CCD1D9"/>
</svg>
