<svg width="24" height="27" viewBox="0 0 24 27" fill="none" xmlns="http://www.w3.org/2000/svg">
<g opacity="0.88">
<path d="M0.000518799 21.4225C0.000518799 22.394 3.27325 23.1838 7.30801 23.1838C11.3428 23.1838 14.6155 22.3965 14.6155 21.4225V18.4299H0.000518799V21.4225Z" fill="url(#paint0_linear_80_15046)"/>
<mask id="mask0_80_15046" style="mask-type:luminance" maskUnits="userSpaceOnUse" x="0" y="18" width="15" height="6">
<path d="M0.000183105 21.4196C0.000183105 22.391 3.27291 23.1808 7.30768 23.1808C11.3424 23.1808 14.6152 22.3936 14.6152 21.4196V18.4269H0.000183105V21.4196Z" fill="white"/>
</mask>
<g mask="url(#mask0_80_15046)">
<path d="M2.39765 23.3586H3.91415L3.91415 18.0773H2.39765L2.39765 23.3586Z" fill="#F5F7FA"/>
</g>
<path d="M7.30795 20.1907C11.3438 20.1907 14.6155 19.4021 14.6155 18.4294C14.6155 17.4567 11.3438 16.6681 7.30795 16.6681C3.27213 16.6681 0.000457764 17.4567 0.000457764 18.4294C0.000457764 19.4021 3.27213 20.1907 7.30795 20.1907Z" fill="#FFD522"/>
<path d="M12.4884 18.4874C11.9534 18.018 9.85151 17.6648 7.3383 17.6648C4.82509 17.6648 2.72318 18.0155 2.18824 18.4874C2.10245 18.4117 2.0545 18.3334 2.0545 18.2527C2.0545 17.6698 4.41884 17.1954 7.33578 17.1954C10.2527 17.1954 12.6171 17.6673 12.6171 18.2527C12.6171 18.3334 12.5691 18.4117 12.4833 18.4874H12.4884Z" fill="url(#paint1_linear_80_15046)"/>
<path d="M0.000488281 17.0805C0.000488281 18.052 3.27321 18.8418 7.30798 18.8418C11.3427 18.8418 14.6155 18.0545 14.6155 17.0805V14.0879H0.000488281V17.0805Z" fill="url(#paint2_linear_80_15046)"/>
<mask id="mask1_80_15046" style="mask-type:luminance" maskUnits="userSpaceOnUse" x="0" y="14" width="15" height="5">
<path d="M0.000183105 17.0846C0.000183105 18.056 3.27291 18.8458 7.30768 18.8458C11.3424 18.8458 14.6152 18.0586 14.6152 17.0846V14.0919H0.000183105V17.0846Z" fill="white"/>
</mask>
<g mask="url(#mask1_80_15046)">
<path d="M2.39765 19.0216H3.91415L3.91415 13.7404H2.39765L2.39765 19.0216Z" fill="#F5F7FA"/>
</g>
<path d="M7.30795 15.8469C11.3438 15.8469 14.6155 15.0583 14.6155 14.0856C14.6155 13.1129 11.3438 12.3243 7.30795 12.3243C3.27213 12.3243 0.000457764 13.1129 0.000457764 14.0856C0.000457764 15.0583 3.27213 15.8469 7.30795 15.8469Z" fill="#FFD522"/>
<path d="M12.4883 14.1475C11.9534 13.6782 9.85148 13.3249 7.33827 13.3249C4.82506 13.3249 2.72315 13.6757 2.18821 14.1475C2.10242 14.0718 2.05447 13.9936 2.05447 13.9128C2.05447 13.33 4.41881 12.8556 7.33575 12.8556C10.2527 12.8556 12.617 13.3274 12.617 13.9128C12.617 13.9936 12.5691 14.0718 12.4833 14.1475H12.4883Z" fill="url(#paint3_linear_80_15046)"/>
<path d="M0.000518799 13.0844C0.000518799 14.0559 3.27325 14.8457 7.30801 14.8457C11.3428 14.8457 14.6155 14.0584 14.6155 13.0844V10.0918H0.000518799V13.0844Z" fill="url(#paint4_linear_80_15046)"/>
<mask id="mask2_80_15046" style="mask-type:luminance" maskUnits="userSpaceOnUse" x="0" y="10" width="15" height="5">
<path d="M0.000518799 13.0864C0.000518799 14.0579 3.27325 14.8477 7.30801 14.8477C11.3428 14.8477 14.6155 14.0604 14.6155 13.0864V10.0938H0.000518799V13.0864Z" fill="white"/>
</mask>
<g mask="url(#mask2_80_15046)">
<path d="M2.39765 15.0235H3.91415L3.91415 9.74218H2.39765L2.39765 15.0235Z" fill="#F5F7FA"/>
</g>
<path d="M7.30835 11.8546C11.3442 11.8546 14.6158 11.066 14.6158 10.0933C14.6158 9.12058 11.3442 8.33204 7.30835 8.33204C3.27253 8.33204 0.000854492 9.12058 0.000854492 10.0933C0.000854492 11.066 3.27253 11.8546 7.30835 11.8546Z" fill="#FFD522"/>
<path d="M12.4883 10.1513C11.9534 9.68193 9.85148 9.32866 7.33827 9.32866C4.82506 9.32866 2.72315 9.6794 2.18821 10.1513C2.10242 10.0756 2.05447 9.99734 2.05447 9.91659C2.05447 9.33371 4.41881 8.85933 7.33575 8.85933C10.2527 8.85933 12.617 9.33118 12.617 9.91659C12.617 9.99734 12.5691 10.0756 12.4833 10.1513H12.4883Z" fill="url(#paint5_linear_80_15046)"/>
<path d="M0.000335693 9.09811C0.000335693 10.0696 3.27306 10.8594 7.30783 10.8594C11.3426 10.8594 14.6153 10.0721 14.6153 9.09811V6.10547H0.000335693V9.09811Z" fill="url(#paint6_linear_80_15046)"/>
<mask id="mask3_80_15046" style="mask-type:luminance" maskUnits="userSpaceOnUse" x="0" y="6" width="15" height="5">
<path d="M0 9.09413C0 10.0656 3.27273 10.8554 7.30749 10.8554C11.3423 10.8554 14.615 10.0681 14.615 9.09413V6.10149H0V9.09413Z" fill="white"/>
</mask>
<g mask="url(#mask3_80_15046)">
<path d="M2.3975 11.0342H3.914L3.914 5.75295H2.3975L2.3975 11.0342Z" fill="#F5F7FA"/>
</g>
<path d="M7.30783 7.86412C11.3436 7.86412 14.6153 7.07558 14.6153 6.10285C14.6153 5.13013 11.3436 4.34159 7.30783 4.34159C3.27201 4.34159 0.000335693 5.13013 0.000335693 6.10285C0.000335693 7.07558 3.27201 7.86412 7.30783 7.86412Z" fill="#FFD522"/>
<path d="M12.4882 6.16379C11.9532 5.69446 9.85133 5.3412 7.33812 5.3412C4.8249 5.3412 2.723 5.69193 2.18806 6.16379C2.10226 6.08809 2.05432 6.00987 2.05432 5.92912C2.05432 5.34624 4.41866 4.87186 7.3356 4.87186C10.2525 4.87186 12.6169 5.34372 12.6169 5.92912C12.6169 6.00987 12.5689 6.08809 12.4831 6.16379H12.4882Z" fill="url(#paint7_linear_80_15046)"/>
<path d="M0.000335693 4.75241C0.000335693 5.72388 3.27306 6.51367 7.30783 6.51367C11.3426 6.51367 14.6153 5.7264 14.6153 4.75241V1.75977H0.000335693V4.75241Z" fill="url(#paint8_linear_80_15046)"/>
<mask id="mask4_80_15046" style="mask-type:luminance" maskUnits="userSpaceOnUse" x="0" y="1" width="15" height="6">
<path d="M0 4.75338C0 5.72486 3.27273 6.51465 7.30749 6.51465C11.3423 6.51465 14.615 5.72738 14.615 4.75338V1.76074H0V4.75338Z" fill="white"/>
</mask>
<g mask="url(#mask4_80_15046)">
<path d="M2.3975 6.69524H3.914L3.914 1.41396H2.3975L2.3975 6.69524Z" fill="#F5F7FA"/>
</g>
<path d="M7.30786 3.52254C11.3437 3.52254 14.6154 2.73399 14.6154 1.76127C14.6154 0.788549 11.3437 0 7.30786 0C3.27204 0 0.000366211 0.788549 0.000366211 1.76127C0.000366211 2.73399 3.27204 3.52254 7.30786 3.52254Z" fill="#FFD522"/>
<path d="M12.4882 1.81922C11.9532 1.34988 9.85133 0.996622 7.33812 0.996622C4.8249 0.996622 2.723 1.34736 2.18806 1.81922C2.10226 1.74352 2.05432 1.6653 2.05432 1.58455C2.05432 1.00167 4.41866 0.527287 7.3356 0.527287C10.2525 0.527287 12.6169 0.999145 12.6169 1.58455C12.6169 1.6653 12.5689 1.74352 12.4831 1.81922H12.4882Z" fill="url(#paint9_linear_80_15046)"/>
<path d="M9.38486 25.2182C9.38486 26.1897 12.6576 26.9795 16.6923 26.9795C20.7271 26.9795 23.9998 26.1922 23.9998 25.2182V22.2256H9.38486V25.2182Z" fill="url(#paint10_linear_80_15046)"/>
<mask id="mask5_80_15046" style="mask-type:luminance" maskUnits="userSpaceOnUse" x="9" y="22" width="15" height="5">
<path d="M9.38486 25.2163C9.38486 26.1877 12.6576 26.9775 16.6923 26.9775C20.7271 26.9775 23.9998 26.1903 23.9998 25.2163V22.2236H9.38486V25.2163Z" fill="white"/>
</mask>
<g mask="url(#mask5_80_15046)">
<path d="M11.7845 27.1542H13.301V21.8729H11.7845V27.1542Z" fill="#F5F7FA"/>
</g>
<path d="M16.6923 23.9864C20.7282 23.9864 23.9998 23.1979 23.9998 22.2251C23.9998 21.2524 20.7282 20.4639 16.6923 20.4639C12.6565 20.4639 9.38486 21.2524 9.38486 22.2251C9.38486 23.1979 12.6565 23.9864 16.6923 23.9864Z" fill="#FFD522"/>
<path d="M21.8727 22.2831C21.3378 21.8137 19.2359 21.4605 16.7226 21.4605C14.2094 21.4605 12.1075 21.8112 11.5726 22.2831C11.4868 22.2074 11.4388 22.1292 11.4388 22.0484C11.4388 21.4655 13.8032 20.9911 16.7201 20.9911C19.6371 20.9911 22.0014 21.463 22.0014 22.0484C22.0014 22.1292 21.9535 22.2074 21.8677 22.2831H21.8727Z" fill="url(#paint11_linear_80_15046)"/>
<path d="M9.38486 20.8746C9.38486 21.8461 12.6576 22.6359 16.6923 22.6359C20.7271 22.6359 23.9998 21.8486 23.9998 20.8746V17.882H9.38486V20.8746Z" fill="url(#paint12_linear_80_15046)"/>
<mask id="mask6_80_15046" style="mask-type:luminance" maskUnits="userSpaceOnUse" x="9" y="17" width="15" height="6">
<path d="M9.38474 20.8706C9.38474 21.8421 12.6575 22.6319 16.6922 22.6319C20.727 22.6319 23.9997 21.8446 23.9997 20.8706V17.878H9.38474V20.8706Z" fill="white"/>
</mask>
<g mask="url(#mask6_80_15046)">
<path d="M11.7845 22.8096H13.301V17.5283H11.7845V22.8096Z" fill="#F5F7FA"/>
</g>
<path d="M16.6923 19.6408C20.7282 19.6408 23.9998 18.8522 23.9998 17.8795C23.9998 16.9068 20.7282 16.1182 16.6923 16.1182C12.6565 16.1182 9.38486 16.9068 9.38486 17.8795C9.38486 18.8522 12.6565 19.6408 16.6923 19.6408Z" fill="#FFD522"/>
<path d="M21.8727 17.9414C21.3378 17.4721 19.2359 17.1188 16.7226 17.1188C14.2094 17.1188 12.1075 17.4695 11.5726 17.9414C11.4868 17.8657 11.4388 17.7875 11.4388 17.7067C11.4388 17.1239 13.8032 16.6495 16.7201 16.6495C19.6371 16.6495 22.0014 17.1213 22.0014 17.7067C22.0014 17.7875 21.9535 17.8657 21.8677 17.9414H21.8727Z" fill="url(#paint13_linear_80_15046)"/>
<path d="M9.38495 16.8823C9.38495 17.8538 12.6577 18.6436 16.6924 18.6436C20.7272 18.6436 23.9999 17.8563 23.9999 16.8823V13.8896H9.38495V16.8823Z" fill="url(#paint14_linear_80_15046)"/>
<mask id="mask7_80_15046" style="mask-type:luminance" maskUnits="userSpaceOnUse" x="9" y="13" width="15" height="6">
<path d="M9.38483 16.8853C9.38483 17.8568 12.6576 18.6466 16.6923 18.6466C20.7271 18.6466 23.9998 17.8593 23.9998 16.8853V13.8927H9.38483V16.8853Z" fill="white"/>
</mask>
<g mask="url(#mask7_80_15046)">
<path d="M11.7846 18.8185H13.3011V13.5372H11.7846V18.8185Z" fill="#F5F7FA"/>
</g>
<path d="M16.6925 15.6524C20.7283 15.6524 24 14.8639 24 13.8912C24 12.9184 20.7283 12.1299 16.6925 12.1299C12.6567 12.1299 9.38501 12.9184 9.38501 13.8912C9.38501 14.8639 12.6567 15.6524 16.6925 15.6524Z" fill="#FFD522"/>
<path d="M21.8728 13.9491C21.3379 13.4798 19.236 13.1265 16.7227 13.1265C14.2095 13.1265 12.1076 13.4772 11.5727 13.9491C11.4869 13.8734 11.4389 13.7952 11.4389 13.7144C11.4389 13.1316 13.8033 12.6572 16.7202 12.6572C19.6372 12.6572 22.0015 13.129 22.0015 13.7144C22.0015 13.7952 21.9536 13.8734 21.8678 13.9491H21.8728Z" fill="url(#paint15_linear_80_15046)"/>
</g>
<defs>
<linearGradient id="paint0_linear_80_15046" x1="14.6155" y1="20.8068" x2="0.000518799" y2="20.8068" gradientUnits="userSpaceOnUse">
<stop stop-color="#F5BE00"/>
<stop offset="1" stop-color="#EAA700"/>
</linearGradient>
<linearGradient id="paint1_linear_80_15046" x1="12.6196" y1="17.8414" x2="2.0545" y2="17.8414" gradientUnits="userSpaceOnUse">
<stop stop-color="#F5BE00"/>
<stop offset="1" stop-color="#EAA700"/>
</linearGradient>
<linearGradient id="paint2_linear_80_15046" x1="27.0731" y1="16.4623" x2="26.8207" y2="16.4623" gradientUnits="userSpaceOnUse">
<stop stop-color="#F5BE00"/>
<stop offset="1" stop-color="#EAA700"/>
</linearGradient>
<linearGradient id="paint3_linear_80_15046" x1="12.6196" y1="13.5015" x2="2.05447" y2="13.5015" gradientUnits="userSpaceOnUse">
<stop stop-color="#F5BE00"/>
<stop offset="1" stop-color="#EAA700"/>
</linearGradient>
<linearGradient id="paint4_linear_80_15046" x1="27.0731" y1="12.4688" x2="26.8208" y2="12.4688" gradientUnits="userSpaceOnUse">
<stop stop-color="#F5BE00"/>
<stop offset="1" stop-color="#EAA700"/>
</linearGradient>
<linearGradient id="paint5_linear_80_15046" x1="12.6196" y1="9.50529" x2="2.05447" y2="9.50529" gradientUnits="userSpaceOnUse">
<stop stop-color="#F5BE00"/>
<stop offset="1" stop-color="#EAA700"/>
</linearGradient>
<linearGradient id="paint6_linear_80_15046" x1="27.0729" y1="8.48243" x2="26.8206" y2="8.48243" gradientUnits="userSpaceOnUse">
<stop stop-color="#F5BE00"/>
<stop offset="1" stop-color="#EAA700"/>
</linearGradient>
<linearGradient id="paint7_linear_80_15046" x1="12.6194" y1="5.51783" x2="2.05432" y2="5.51783" gradientUnits="userSpaceOnUse">
<stop stop-color="#F5BE00"/>
<stop offset="1" stop-color="#EAA700"/>
</linearGradient>
<linearGradient id="paint8_linear_80_15046" x1="27.0729" y1="4.13672" x2="26.8206" y2="4.13672" gradientUnits="userSpaceOnUse">
<stop stop-color="#F5BE00"/>
<stop offset="1" stop-color="#EAA700"/>
</linearGradient>
<linearGradient id="paint9_linear_80_15046" x1="12.6194" y1="1.17578" x2="2.05432" y2="1.17578" gradientUnits="userSpaceOnUse">
<stop stop-color="#F5BE00"/>
<stop offset="1" stop-color="#EAA700"/>
</linearGradient>
<linearGradient id="paint10_linear_80_15046" x1="23.9998" y1="24.6025" x2="9.38486" y2="24.6025" gradientUnits="userSpaceOnUse">
<stop stop-color="#F5BE00"/>
<stop offset="1" stop-color="#EAA700"/>
</linearGradient>
<linearGradient id="paint11_linear_80_15046" x1="22.0039" y1="21.6371" x2="11.4388" y2="21.6371" gradientUnits="userSpaceOnUse">
<stop stop-color="#F5BE00"/>
<stop offset="1" stop-color="#EAA700"/>
</linearGradient>
<linearGradient id="paint12_linear_80_15046" x1="23.9998" y1="20.2564" x2="9.38486" y2="20.2564" gradientUnits="userSpaceOnUse">
<stop stop-color="#F5BE00"/>
<stop offset="1" stop-color="#EAA700"/>
</linearGradient>
<linearGradient id="paint13_linear_80_15046" x1="22.0039" y1="17.2954" x2="11.4388" y2="17.2954" gradientUnits="userSpaceOnUse">
<stop stop-color="#F5BE00"/>
<stop offset="1" stop-color="#EAA700"/>
</linearGradient>
<linearGradient id="paint14_linear_80_15046" x1="23.9999" y1="16.2666" x2="9.38495" y2="16.2666" gradientUnits="userSpaceOnUse">
<stop stop-color="#F5BE00"/>
<stop offset="1" stop-color="#EAA700"/>
</linearGradient>
<linearGradient id="paint15_linear_80_15046" x1="22.004" y1="13.3031" x2="11.4389" y2="13.3031" gradientUnits="userSpaceOnUse">
<stop stop-color="#F5BE00"/>
<stop offset="1" stop-color="#EAA700"/>
</linearGradient>
</defs>
</svg>
