<svg width="20" height="18" viewBox="0 0 20 18" fill="none" xmlns="http://www.w3.org/2000/svg">
<path d="M9.4 4C9.4 5.87777 7.87777 7.4 6 7.4C4.12223 7.4 2.6 5.87777 2.6 4C2.6 2.12223 4.12223 0.6 6 0.6C7.87777 0.6 9.4 2.12223 9.4 4Z" stroke="#64686F" stroke-width="1.2"/>
<path d="M18.1113 11.8887C18.9364 12.7139 19.4 13.833 19.4 15C19.4 15.6365 19.1471 16.247 18.697 16.6971C18.247 17.1471 17.6365 17.4 17 17.4H12.9374C13.0372 17.2348 13.1267 17.0631 13.2053 16.8858C13.4687 16.2919 13.6032 15.6488 13.6 14.9991C13.6027 13.5402 13.1812 12.1176 12.3947 10.9013C12.905 10.7036 13.4492 10.6007 14.0004 10.6H15C16.1669 10.6 17.2861 11.0636 18.1113 11.8887Z" stroke="#64686F" stroke-width="1.2"/>
<path d="M1.30294 16.6971C0.852857 16.247 0.6 15.6365 0.6 15C0.6 13.5678 1.16893 12.1943 2.18162 11.1816C3.19432 10.1689 4.56783 9.6 6 9.6C7.43217 9.6 8.80568 10.1689 9.81838 11.1816C10.8311 12.1943 11.4 13.5678 11.4 15C11.4 15.6365 11.1471 16.247 10.6971 16.6971C10.247 17.1471 9.63652 17.4 9 17.4H3C2.36348 17.4 1.75303 17.1471 1.30294 16.6971Z" stroke="#64686F" stroke-width="1.2"/>
<path d="M17.4 5.5C17.4 7.10163 16.1016 8.4 14.5 8.4C12.8984 8.4 11.6 7.10163 11.6 5.5C11.6 3.89837 12.8984 2.6 14.5 2.6C16.1016 2.6 17.4 3.89837 17.4 5.5Z" stroke="#64686F" stroke-width="1.2"/>
</svg>
