<svg width="19" height="17" viewBox="0 0 19 17" fill="none" xmlns="http://www.w3.org/2000/svg">
<path fill-rule="evenodd" clip-rule="evenodd" d="M11.7493 4.42779L11.5284 1.24993H7.4819L7.17609 5.6436C7.17526 5.65662 7.17444 5.68022 7.17444 5.71195H7.17197C7.17197 6.71779 9.21786 8.38857 11.1493 6.86591C11.568 6.53552 11.8656 6.10013 11.8342 5.6436L11.7493 4.42779ZM6.00158 4.24631L6.21506 1.24991H3.14136C2.73086 1.24991 2.29564 1.55753 2.20661 1.93432L1.26692 6.00486C1.26692 7.00257 3.22874 8.20294 4.91945 6.92851C5.35468 6.60056 5.66874 6.16192 5.74951 5.69399L6.00158 4.24631ZM6.42691 7.18334C7.07562 8.05815 8.24119 8.65385 9.29297 8.72464C10.4791 8.80521 11.855 8.15824 12.5794 7.18984C13.3921 8.26567 14.8594 8.90774 16.2269 8.68964V15.0283C16.2269 15.4506 15.7916 15.7501 15.344 15.7501H11.7624V11.4273C11.7624 11.0822 11.4788 10.8023 11.1293 10.8023H7.8807C7.53121 10.8023 7.24764 11.0822 7.24764 11.4273V15.7501H3.66517C3.2184 15.7501 2.78235 15.4506 2.78235 15.0283V8.69131C4.15068 8.90532 5.61634 8.26082 6.42665 7.18336L6.42691 7.18334ZM1.51649 8.25021C0.528159 7.69358 -0.2137 6.67797 0.0558351 5.53777L0.975752 1.65118C1.19831 0.709632 2.15119 0 3.14123 0H15.8594C16.8493 0 17.803 0.709611 18.0257 1.65118C18.1897 2.34289 19 5.53547 19 6.00484H18.9992C18.9992 6.96999 18.3257 7.77401 17.494 8.24521V15.0282C17.494 16.1512 16.4867 17 15.345 17H3.66466C2.52301 17 1.51564 16.1512 1.51564 15.0282L1.51649 8.25021ZM13.0063 4.283L13.2511 5.69491C13.5074 7.17192 15.8815 8.20715 17.3141 6.83422C17.5721 6.58764 17.7369 6.29631 17.7369 6.00497H17.7345L16.7948 1.93442C16.7057 1.55764 16.2705 1.25002 15.86 1.25002H12.7954L13.0063 4.283ZM8.51389 15.7501H10.4963V12.0522H8.51389V15.7501Z" fill="#64686F"/>
</svg>
