<svg width="16" height="16" viewBox="0 0 16 16" fill="none" xmlns="http://www.w3.org/2000/svg">
<path d="M9.00334 1.1428L10.3812 3.935C10.6493 4.4783 11.1676 4.85505 11.767 4.94189L14.8483 5.38944C15.7661 5.5226 16.1326 6.65061 15.4682 7.29812L13.2384 9.47176C12.8047 9.89483 12.6065 10.504 12.7089 11.1012L13.2353 14.17C13.392 15.0842 12.4328 15.7812 11.6116 15.3496L8.85549 13.9006C8.31931 13.6187 7.67849 13.6187 7.14231 13.9006L4.38618 15.3496C3.56544 15.7812 2.60576 15.0842 2.76296 14.17L3.28934 11.1012C3.39176 10.504 3.19359 9.89483 2.75984 9.47176L0.530084 7.29812C-0.1339 6.65061 0.232605 5.52304 1.14998 5.38944L4.2312 4.94189C4.83062 4.8546 5.34898 4.4783 5.61706 3.935L6.99491 1.1428C7.4055 0.311369 8.59141 0.311369 9.00156 1.1428H9.00334Z" fill="url(#paint0_linear_80_14449)"/>
<path d="M12.1344 15.6728C11.926 15.6728 11.7167 15.6224 11.523 15.5205L8.76686 14.0714C8.28679 13.8189 7.71365 13.8189 7.23315 14.0714L4.47746 15.5205C4.03168 15.7547 3.50263 15.716 3.09605 15.4207C2.68902 15.125 2.48907 14.6334 2.57413 14.1377L3.1005 11.069C3.19224 10.5341 3.015 9.98904 2.62667 9.61007L0.396918 7.43687C0.0370936 7.08595 -0.0902702 6.57071 0.0651492 6.09242C0.220569 5.61414 0.626262 5.27168 1.12414 5.19954L4.20536 4.75199C4.74243 4.67361 5.20601 4.33694 5.44605 3.85064L6.82389 1.05844C7.04655 0.607321 7.49723 0.327209 8 0.327209C8.50278 0.327209 8.95389 0.607321 9.17611 1.05844L10.554 3.85064C10.794 4.33694 11.258 4.67405 11.7946 4.75199L14.8759 5.19954C15.3737 5.27168 15.7794 5.61414 15.9349 6.09242C16.0903 6.57071 15.9629 7.08595 15.6031 7.43687L13.3733 9.61007C12.985 9.9886 12.8078 10.5341 12.8995 11.069L13.4259 14.1377C13.5109 14.6338 13.311 15.125 12.9039 15.4207C12.6742 15.5877 12.4047 15.6728 12.134 15.6728H12.1344ZM7.99956 13.4969C8.32464 13.4969 8.64973 13.5748 8.94588 13.7307L11.702 15.1798C12.0209 15.3472 12.3856 15.321 12.6773 15.1094C12.969 14.8974 13.1066 14.559 13.0456 14.2036L12.5192 11.1349C12.4061 10.4753 12.6243 9.80201 13.1039 9.33486L15.3337 7.16166C15.5919 6.91005 15.6792 6.55512 15.5679 6.21222C15.4566 5.86932 15.1773 5.63374 14.8206 5.58163L11.7394 5.13408C11.0768 5.03789 10.5045 4.62195 10.2084 4.02165L8.83054 1.22944C8.67066 0.906136 8.36072 0.713309 8 0.713309C7.63929 0.713309 7.32934 0.906136 7.16946 1.22944L5.79162 4.02165C5.49548 4.62195 4.92279 5.03789 4.26058 5.13408L1.17936 5.58163C0.822652 5.63374 0.542986 5.86932 0.432099 6.21222C0.320767 6.55512 0.408052 6.91005 0.666342 7.16166L2.8961 9.33486C3.37572 9.80201 3.59393 10.4753 3.48081 11.1349L2.95444 14.2036C2.89343 14.559 3.03148 14.8974 3.32317 15.1094C3.61486 15.3214 3.97958 15.3477 4.29844 15.1802L7.05412 13.7311C7.35071 13.5753 7.6758 13.4973 8.00045 13.4973L7.99956 13.4969Z" fill="url(#paint1_linear_80_14449)"/>
<g style="mix-blend-mode:overlay">
<path d="M11.7554 6.36093L10.4297 6.16811C10.0432 6.112 9.70872 5.86885 9.53593 5.51837L8.64705 3.71747C8.38208 3.18085 7.61746 3.18085 7.35249 3.71747L6.46361 5.51837C6.29083 5.86885 5.95638 6.11155 5.56984 6.16811L3.58234 6.45712C2.9905 6.54307 2.75403 7.27074 3.18244 7.68801L4.62085 9.0899C4.90051 9.36289 5.02832 9.75567 4.96241 10.1409L4.62307 12.1204C4.52822 12.6739 5.06707 13.0956 5.57162 12.9162C6.01784 10.1449 8.38298 7.54417 11.7563 6.36049L11.7554 6.36093Z" fill="#B3B3B3"/>
</g>
<g style="mix-blend-mode:overlay">
<path d="M10.4297 6.16745C9.65265 6.10243 9.39881 5.2808 9.07818 4.69698L8.6039 3.76713C8.4703 3.46475 8.11048 3.31691 7.80944 3.41755C7.46609 3.51552 7.37791 3.87624 7.22561 4.16258L6.76737 5.10044C6.54782 5.605 6.2735 6.12737 5.68121 6.24226C5.0867 6.34424 4.20362 6.45558 3.60821 6.54375C3.11746 6.58561 2.86585 7.23668 3.2092 7.5925C3.57749 7.95811 4.31495 8.69869 4.68234 9.06564C4.93841 9.32839 5.06355 9.70736 5.0199 10.0667L4.62267 12.1201L4.92594 10.0569C4.95578 9.72384 4.83287 9.38183 4.59551 9.1507C4.15107 8.71383 3.5187 8.14426 3.08495 7.70294C2.64542 7.25405 2.96249 6.42351 3.58238 6.36562C3.90525 6.31663 4.79546 6.18482 5.13123 6.13405C5.46389 6.08373 5.80546 6.0766 6.07221 5.85616C6.32071 5.6905 6.47746 5.27724 6.61106 5.02251C6.77895 4.69475 7.14456 3.93502 7.31824 3.6175C7.61973 3.08177 8.49346 3.14679 8.7139 3.7128L9.16368 4.65512C9.46071 5.25141 9.6571 6.06235 10.4311 6.167L10.4297 6.16745Z" fill="#999999"/>
</g>
<g style="mix-blend-mode:overlay">
<path d="M15.4686 7.29848C14.9467 7.86805 14.4074 8.41982 13.8774 8.98048L13.4731 9.39419C13.335 9.53536 13.2068 9.66094 13.1093 9.8128C12.9146 10.1156 12.8167 10.4759 12.8318 10.8304C12.8394 11.0023 12.8857 11.1857 12.9204 11.379C12.9204 11.379 13.3733 13.8305 13.4277 14.2403C13.4869 14.686 13.2687 15.1545 12.904 15.4199C12.5392 15.6853 12.0258 15.7477 11.6201 15.5535C11.2473 15.3754 10.9316 15.1892 10.5851 15.0071L9.05588 14.1873C8.88265 14.0946 8.72278 13.9935 8.56157 13.9334C8.22891 13.8092 7.85662 13.7914 7.50837 13.8827C7.3338 13.9285 7.17437 14.0114 6.99758 14.0991L6.47922 14.356C5.78183 14.6865 5.09024 15.0289 4.38751 15.3491C5.04971 14.9514 5.7235 14.576 6.39149 14.189L6.89693 13.9076C7.06082 13.8167 7.24117 13.7116 7.4389 13.6497C7.83123 13.5273 8.26365 13.5246 8.66043 13.6542C8.86484 13.721 9.03673 13.8208 9.20685 13.9018C9.20685 13.9018 11.4424 15.0663 11.7675 15.216C12.0627 15.3513 12.4163 15.2983 12.6782 15.1086C12.9405 14.9189 13.0999 14.5978 13.0621 14.2754C13.0206 13.9201 12.9418 13.5215 12.883 13.1465L12.6038 11.4338C12.5798 11.2468 12.5375 11.0521 12.537 10.8375C12.5366 10.4202 12.6724 10.0101 12.9102 9.67475C13.03 9.50597 13.1854 9.36703 13.3226 9.23922L13.7465 8.84555C14.321 8.32986 14.8861 7.80526 15.4686 7.29803V7.29848Z" fill="url(#paint2_linear_80_14449)"/>
</g>
<defs>
<linearGradient id="paint0_linear_80_14449" x1="3.02258" y1="3.76578" x2="20.0159" y2="21.8643" gradientUnits="userSpaceOnUse">
<stop stop-color="#EEC909"/>
<stop offset="0.64" stop-color="#EFAB13"/>
<stop offset="1" stop-color="#F1981A"/>
</linearGradient>
<linearGradient id="paint1_linear_80_14449" x1="2.68501" y1="3.4071" x2="13.4753" y2="14.8992" gradientUnits="userSpaceOnUse">
<stop stop-color="#F1981A"/>
<stop offset="0.36" stop-color="#EFAB13"/>
<stop offset="1" stop-color="#EEC909"/>
</linearGradient>
<linearGradient id="paint2_linear_80_14449" x1="9.21353" y1="10.5632" x2="13.3733" y2="14.9937" gradientUnits="userSpaceOnUse">
<stop stop-color="#F1981A"/>
<stop offset="0.36" stop-color="#EFAB13"/>
<stop offset="1" stop-color="#EEC909"/>
</linearGradient>
</defs>
</svg>
