<svg width="37" height="37" viewBox="0 0 37 37" fill="none" xmlns="http://www.w3.org/2000/svg">
<path d="M24.1071 30.6991C30.9715 27.4733 33.9212 19.2936 30.6954 12.4292C27.4697 5.56473 19.2899 2.615 12.4255 5.84077C5.56106 9.06655 2.61134 17.2463 5.83711 24.1107C9.06288 30.9752 17.2426 33.9249 24.1071 30.6991Z" fill="#FCC435"/>
<path d="M26.4091 26.4103C30.9057 21.9138 30.9057 14.6234 26.4091 10.1268C21.9125 5.63019 14.6221 5.6302 10.1255 10.1268C5.62896 14.6234 5.62896 21.9138 10.1255 26.4103C14.6221 30.9069 21.9125 30.9069 26.4091 26.4103Z" fill="#E28824"/>
<path d="M19.0925 29.0117C25.0253 28.5562 29.4656 23.3775 29.0101 17.4447C28.5547 11.5118 23.3759 7.07151 17.4431 7.52698C11.5102 7.98245 7.06993 13.1612 7.52539 19.094C7.98086 25.0269 13.1596 29.4672 19.0925 29.0117Z" fill="#F5F7FA"/>
<path d="M15.5078 9.09044C15.641 9.43985 15.4645 9.83248 15.1151 9.96576C14.7657 10.099 14.3731 9.92254 14.2398 9.57313C14.1065 9.22372 14.283 8.83109 14.6324 8.69781C14.9818 8.56453 15.3745 8.74104 15.5078 9.09044Z" fill="#375572"/>
<path d="M15.2772 9.1788C15.3618 9.40213 15.2502 9.65068 15.0269 9.73533C14.8035 9.81998 14.555 9.70831 14.4703 9.48498C14.3857 9.26165 14.4973 9.0131 14.7207 8.92845C14.944 8.8438 15.1925 8.95547 15.2772 9.1788Z" fill="#375572"/>
<path d="M9.7245 13.955C9.94243 14.0523 10.0397 14.308 9.94063 14.526C9.84337 14.7439 9.58762 14.8411 9.36969 14.7421C9.15176 14.6448 9.0545 14.3891 9.15356 14.1712C9.25082 13.9532 9.50657 13.856 9.7245 13.955Z" fill="#375572"/>
<path d="M9.17697 21.2588C9.4003 21.1742 9.64885 21.2859 9.7335 21.5092C9.81815 21.7325 9.70648 21.9811 9.48315 22.0657C9.25982 22.1504 9.01127 22.0387 8.92662 21.8154C8.84197 21.592 8.95364 21.3435 9.17697 21.2588Z" fill="#375572"/>
<path d="M13.9534 26.8117C14.0507 26.5937 14.3064 26.4965 14.5244 26.5955C14.7423 26.6928 14.8396 26.9485 14.7405 27.1665C14.6432 27.3844 14.3875 27.4817 14.1696 27.3826C13.9516 27.2853 13.8544 27.0296 13.9534 26.8117Z" fill="#375572"/>
<path d="M21.2567 27.3583C21.1721 27.1349 21.2838 26.8864 21.5071 26.8017C21.7304 26.7171 21.979 26.8287 22.0636 27.0521C22.1483 27.2754 22.0366 27.524 21.8133 27.6086C21.5899 27.6933 21.3414 27.5816 21.2567 27.3583Z" fill="#375572"/>
<path d="M26.8094 22.5826C26.5915 22.4854 26.4942 22.2296 26.5933 22.0117C26.6905 21.7938 26.9463 21.6965 27.1642 21.7956C27.3822 21.8928 27.4794 22.1486 27.3804 22.3665C27.2813 22.5844 27.0273 22.6817 26.8094 22.5826Z" fill="#375572"/>
<path d="M27.3587 15.2785C27.1354 15.3631 26.8869 15.2515 26.8022 15.0281C26.7176 14.8048 26.8292 14.5563 27.0526 14.4716C27.2759 14.387 27.5244 14.4986 27.6091 14.722C27.6937 14.9453 27.5821 15.1938 27.3587 15.2785Z" fill="#375572"/>
<path d="M22.5805 9.72598C22.4832 9.94391 22.2275 10.0412 22.0096 9.94211C21.7916 9.84485 21.6944 9.5891 21.7934 9.37117C21.8907 9.15325 22.1464 9.05599 22.3644 9.15505C22.5823 9.2523 22.6796 9.50806 22.5805 9.72598Z" fill="#375572"/>
<path d="M9.08872 21.0279C9.43813 20.8946 9.83076 21.0711 9.96404 21.4205C10.0973 21.7699 9.92081 22.1625 9.57141 22.2958C9.222 22.4291 8.82937 22.2526 8.69609 21.9032C8.56281 21.5538 8.73931 21.1612 9.08872 21.0279Z" fill="#375572"/>
<path d="M21.0262 27.4471C20.8929 27.0977 21.0694 26.7051 21.4188 26.5718C21.7682 26.4385 22.1609 26.615 22.2941 26.9645C22.4274 27.3139 22.2509 27.7065 21.9015 27.8398C21.5521 27.973 21.1595 27.7965 21.0262 27.4471Z" fill="#375572"/>
<path d="M27.4452 15.5098C27.0958 15.6431 26.7032 15.4666 26.5699 15.1172C26.4366 14.7678 26.6131 14.3752 26.9625 14.2419C27.3119 14.1086 27.7046 14.2851 27.8378 14.6345C27.9711 14.9839 27.7946 15.3766 27.4452 15.5098Z" fill="#375572"/>
<path d="M23.128 15.4307L18.5713 17.1615L16.383 11.3981C16.2498 11.0487 15.8571 10.8722 15.5077 11.0054C15.1583 11.1387 14.9818 11.5314 15.1151 11.8808L17.3034 17.6442L17.5501 18.2926C17.5501 18.2926 18.0166 19.0922 19.1423 18.6636L23.699 16.9327C24.1114 16.7761 24.3221 16.3096 24.1654 15.8971C24.0088 15.4847 23.5423 15.274 23.1298 15.4307H23.128Z" fill="#375572"/>
</svg>
